<?xml version="1.0" encoding="UTF-8" standalone="no"?><!DOCTYPE svg PUBLIC "-//W3C//DTD SVG 1.1//EN" "http://www.w3.org/Graphics/SVG/1.1/DTD/svg11.dtd"><svg width="100%" height="100%" viewBox="0 0 702 725" version="1.1" xmlns="http://www.w3.org/2000/svg" xmlns:xlink="http://www.w3.org/1999/xlink" xml:space="preserve" style="fill-rule:evenodd;clip-rule:evenodd;stroke-linejoin:round;stroke-miterlimit:1.41421;"><path d="M184.375,1.226l-166.257,0c-9.95,0 -17.46,8.156 -17.46,18.03l0,568.465c0,9.882 6.803,21.88 15.517,26.664l109.136,59.643c8.696,4.784 16.45,0.607 16.45,-9.257l0,-507.875c0,-9.87 6.595,-16.724 16.566,-16.724l123.467,0l-69.739,-123.115c-4.869,-8.617 -17.733,-15.831 -27.68,-15.831Z" style="fill:#fff;fill-rule:nonzero;"/><path d="M685.408,1.226l-166.257,0c-9.941,0 -22.802,7.214 -27.683,15.831l-69.739,123.115l123.476,0c9.962,0 16.551,6.854 16.551,16.724l0,507.875c0,9.864 7.822,14.041 16.527,9.257l108.909,-59.643c8.703,-4.784 15.685,-16.782 15.685,-26.664l0,-568.465c0,-9.874 -7.528,-18.03 -17.469,-18.03Z" style="fill:#fff;fill-rule:nonzero;"/><path d="M281.794,140.172l0,565.008c0,9.861 7.851,19.82 17.792,19.82l103.987,0c9.962,0 18.156,-9.959 18.156,-19.82l0,-565.008l-139.935,0Z" style="fill:#fff;fill-rule:nonzero;"/></svg>
